<svg xmlns="http://www.w3.org/2000/svg" width="140" height="48" viewBox="0 0 140 48">
  <!-- Background Shape -->
  <rect x="0" y="0" width="140" height="48" rx="8" fill="none" />
  
  <!-- Modern Logo Circle -->
  <circle cx="24" cy="24" r="16" fill="#2563EB" />
  
  <!-- Inner Circle (lighter blue) -->
  <circle cx="24" cy="24" r="8" fill="#60A5FA" />
  
  <!-- Modern Rays/Lines -->
  <path d="M24 4V8M24 40V44M44 24H40M8 24H4M38 10L35 13M13 35L10 38M38 38L35 35M13 13L10 10" 
        stroke="#3B82F6" stroke-width="2.5" stroke-linecap="round" />
  
  <!-- Sunny Text - Modern Sans Serif Font -->
  <path d="M55.5 18.5c0-1.1.2-2 .7-2.8.5-.8 1.1-1.4 2-1.8.8-.4 1.7-.6 2.7-.6 1.1 0 2.1.2 3 .7.9.5 1.5 1.2 2 2.1.5.9.7 1.9.7 3.1v.3c0 1.1-.2 2.1-.7 2.9-.5.8-1.1 1.5-2 1.9-.8.4-1.8.7-2.9.7-1.1 0-2.1-.2-2.9-.7-.9-.5-1.5-1.1-2-2-.5-.8-.7-1.8-.7-2.9v-.9zm2.6.6c0 .9.2 1.6.5 2.2.3.6.8 1 1.5 1.2.6.2 1.3.3 2 .1.7-.1 1.2-.5 1.6-1 .4-.6.6-1.3.6-2.2 0-.7-.1-1.3-.4-1.9-.3-.5-.7-1-1.2-1.3-.5-.3-1.1-.4-1.7-.4-.9 0-1.7.3-2.3.9-.6.6-.9 1.4-.9 2.4h.3z" fill="#2563EB"/>
  <path d="M70.2 12.6h2.7l4.6 11.9h-2.8l-1-2.9h-4.5l-1 2.9h-2.7l4.7-11.9zm2.5 6.8l-1.2-3.4-1.2 3.4h2.4z" fill="#2563EB"/>
  <path d="M85.1 12.6h2.6v9.7h5.1v2.2h-7.7V12.6z" fill="#2563EB"/>
  <path d="M97.9 12.6h2.6v9.7h5.1v2.2h-7.7V12.6z" fill="#2563EB"/>
  <path d="M111.1 12.6h2.6l4.8 7.3v-7.3h2.6v11.9h-2.6l-4.8-7.3v7.3h-2.6V12.6z" fill="#2563EB"/>

  <!-- Payments Text - Modern, lighter blue -->
  <path d="M58 33.4h1.7l3.5 8.3h-1.9l-.7-1.9H57l-.7 1.9h-1.8l3.5-8.3zm1.7 4.9l-.9-2.4-.8 2.4h1.7z" fill="#60A5FA"/>
  <path d="M67.6 35.5h-2.2v-1.8h6.4v1.8h-2.2v6.2h-2v-6.2z" fill="#60A5FA"/>
  <path d="M77.7 33.4h1.4l3.6 8.3h-2l-.6-1.5h-3.5l-.6 1.5h-1.9l3.6-8.3zm1.3 5l-.6-1.9-.7 1.9h1.3z" fill="#60A5FA"/>
  <path d="M83.2 35.2h-1.5v-1.8h5v1.8h-1.5v6.5h-2v-6.5z" fill="#60A5FA"/>
  <path d="M91.6 33.4h2v8.3h-2v-8.3z" fill="#60A5FA"/>
  <path d="M95.7 33.4h2v6.5h3.6v1.8h-5.6v-8.3z" fill="#60A5FA"/>
  <path d="M106.5 33.4c.8 0 1.5.2 2.1.5.6.3 1 .8 1.4 1.4.3.6.5 1.3.5 2.1 0 .8-.2 1.5-.5 2.1-.3.6-.8 1.1-1.4 1.4-.6.3-1.3.5-2.1.5h-3.2v-8h3.2zm-.1 6.3c.6 0 1.2-.2 1.6-.6.4-.4.6-1 .6-1.8s-.2-1.3-.6-1.7c-.4-.4-.9-.6-1.6-.6h-1.1v4.7h1.1z" fill="#60A5FA"/>
  <path d="M116.1 33.4h2v3.5c0 .5-.1 1-.3 1.5-.2.5-.6.9-1.1 1.2-.5.3-1.2.5-2 .5s-1.5-.2-2-.5c-.5-.3-.9-.7-1.1-1.2-.2-.5-.3-1-.3-1.5v-3.5h2v3.5c0 .5.1.8.3 1 .2.2.5.3.9.3.4 0 .8-.1 1-.3.2-.2.3-.5.3-1v-3.5h.3z" fill="#60A5FA"/>
</svg>

